<svg width="300" height="301" viewBox="0 0 300 301" fill="none" xmlns="http://www.w3.org/2000/svg">
<g style="mix-blend-mode:soft-light; opacity: .1">
<path d="M46.875 301C46.875 299.561 47.2042 298.18 47.7903 297.163C48.3763 296.145 49.1712 295.573 50 295.573C50.8288 295.573 51.6237 296.145 52.2097 297.163C52.7958 298.18 53.125 299.561 53.125 301H46.875ZM246.875 301C246.875 299.561 247.204 298.18 247.79 297.163C248.376 296.145 249.171 295.573 250 295.573C250.829 295.573 251.624 296.145 252.21 297.163C252.796 298.18 253.125 299.561 253.125 301H246.875ZM175.3 300.696C167.631 300.807 160.086 297.344 153.45 290.667C146.901 284.066 141.463 274.599 137.678 263.211C133.892 251.823 131.892 238.91 131.875 225.761C131.868 214.079 133.436 202.556 136.453 192.114C139.47 181.673 143.853 172.603 149.25 165.63C149.573 165.191 149.943 164.867 150.339 164.677C150.734 164.486 151.148 164.432 151.555 164.519C151.962 164.606 152.356 164.831 152.713 165.182C153.071 165.533 153.385 166.002 153.638 166.564C153.89 167.125 154.077 167.768 154.187 168.455C154.297 169.142 154.327 169.859 154.277 170.567C154.228 171.274 154.098 171.958 153.896 172.578C153.694 173.199 153.423 173.744 153.1 174.183C148.45 180.14 144.672 187.911 142.071 196.871C139.47 205.831 138.118 215.727 138.125 225.761C138.139 236.998 139.847 248.033 143.079 257.768C146.312 267.502 150.956 275.597 156.55 281.246C161.55 286.269 167.161 289.177 172.929 289.736C178.697 290.294 184.459 288.486 189.75 284.459C190.355 283.995 191.03 283.878 191.676 284.123C192.323 284.368 192.908 284.963 193.347 285.822C193.786 286.682 194.057 287.761 194.12 288.905C194.184 290.048 194.037 291.198 193.7 292.187C193.331 293.272 192.757 294.101 192.075 294.531C186.783 298.5 181.089 300.595 175.325 300.696H175.3ZM24.7 300.696C18.926 300.587 13.2228 298.477 7.925 294.488C7.49703 294.289 7.09821 293.936 6.75497 293.449C6.41174 292.963 6.13194 292.356 5.93412 291.668C5.7363 290.979 5.62498 290.226 5.60755 289.458C5.59012 288.689 5.66697 287.923 5.833 287.21C5.99904 286.496 6.25047 285.853 6.57062 285.321C6.89077 284.79 7.27233 284.382 7.69 284.126C8.10767 283.87 8.55191 283.771 8.99326 283.836C9.43461 283.901 9.86299 284.128 10.25 284.502C15.5374 288.522 21.2952 290.326 27.0582 289.768C32.8212 289.21 38.4278 286.305 43.425 281.289C49.0234 275.646 53.6727 267.554 56.9098 257.819C60.1469 248.084 61.8588 237.046 61.875 225.804C61.8821 215.77 60.5304 205.874 57.9291 196.914C55.3278 187.955 51.5497 180.183 46.9 174.227C46.5766 173.788 46.3062 173.242 46.1042 172.622C45.9022 172.001 45.7725 171.318 45.7226 170.61C45.6727 169.903 45.7035 169.185 45.8133 168.498C45.9231 167.811 46.1097 167.169 46.3625 166.607C46.6153 166.046 46.9293 165.576 47.2866 165.225C47.6439 164.874 48.0375 164.649 48.4449 164.562C48.8523 164.476 49.2656 164.529 49.6611 164.72C50.0566 164.911 50.4266 165.235 50.75 165.674C56.1473 172.646 60.5299 181.716 63.547 192.158C66.5641 202.599 68.1319 214.122 68.125 225.804C68.0953 238.932 66.0884 251.817 62.3035 263.181C58.5187 274.544 53.0877 283.99 46.55 290.58C39.9192 297.287 32.3734 300.781 24.7 300.696ZM240.65 299.263C240.139 299.199 239.646 298.917 239.212 298.443C238.779 297.969 238.419 297.318 238.165 296.546C237.911 295.774 237.769 294.906 237.754 294.017C237.738 293.128 237.848 292.246 238.075 291.449C239.201 287.15 241.072 283.569 243.425 281.203C245.422 279.21 247.685 278.162 249.988 278.162C252.29 278.162 254.553 279.21 256.55 281.203C258.913 283.562 260.792 287.144 261.925 291.449C262.276 292.755 262.314 294.251 262.031 295.607C261.747 296.963 261.165 298.067 260.413 298.677C259.66 299.288 258.799 299.354 258.018 298.861C257.237 298.368 256.601 297.358 256.25 296.051C255.694 293.987 254.811 292.241 253.704 291.018C252.597 289.795 251.312 289.145 250 289.145C248.688 289.145 247.403 289.795 246.296 291.018C245.189 292.241 244.306 293.987 243.75 296.051C243.488 297.077 243.049 297.938 242.494 298.513C241.939 299.088 241.295 299.351 240.65 299.263ZM210.025 298.656C209.588 298.606 209.162 298.397 208.774 298.042C208.386 297.688 208.046 297.196 207.775 296.598C207.503 296.001 207.308 295.31 207.2 294.573C207.093 293.835 207.075 293.067 207.15 292.317C207.922 280.711 210.248 269.581 213.943 259.817C217.637 250.054 222.597 241.929 228.425 236.094C234.985 229.542 242.42 226.094 249.988 226.094C257.555 226.094 264.99 229.542 271.55 236.094C277.378 241.929 282.338 250.054 286.032 259.817C289.727 269.581 292.053 280.711 292.825 292.317C292.912 293.044 292.913 293.794 292.827 294.521C292.741 295.248 292.57 295.937 292.324 296.545C292.078 297.153 291.763 297.666 291.399 298.054C291.034 298.442 290.628 298.696 290.205 298.8C289.781 298.905 289.35 298.857 288.938 298.66C288.526 298.463 288.141 298.122 287.808 297.656C287.475 297.191 287.2 296.612 287.001 295.955C286.802 295.298 286.682 294.577 286.65 293.836C286.006 283.865 284.021 274.295 280.856 265.901C277.69 257.508 273.432 250.524 268.425 245.515C262.815 239.916 256.458 236.969 249.988 236.969C243.517 236.969 237.16 239.916 231.55 245.515C226.548 250.529 222.295 257.515 219.133 265.908C215.972 274.302 213.991 283.869 213.35 293.836C213.256 295.222 212.857 296.491 212.238 297.381C211.619 298.27 210.826 298.711 210.025 298.612V298.656ZM230.8 295.443C230.311 295.385 229.837 295.128 229.415 294.693C228.994 294.258 228.638 293.657 228.375 292.939C228.112 292.22 227.95 291.404 227.903 290.557C227.855 289.71 227.922 288.855 228.1 288.062C229.904 278.861 233.574 271.115 238.425 266.268C241.943 262.756 245.93 260.907 249.988 260.907C254.045 260.907 258.032 262.756 261.55 266.268C266.411 271.136 270.082 278.916 271.875 288.149C272.05 288.833 272.142 289.573 272.144 290.321C272.147 291.07 272.06 291.811 271.89 292.499C271.719 293.187 271.469 293.805 271.154 294.317C270.839 294.828 270.466 295.221 270.06 295.47C269.654 295.719 269.222 295.82 268.792 295.765C268.362 295.711 267.943 295.503 267.562 295.153C267.18 294.804 266.845 294.322 266.576 293.737C266.307 293.151 266.111 292.476 266 291.752C264.693 284.968 261.997 279.252 258.425 275.689C255.858 273.125 252.949 271.776 249.988 271.776C247.026 271.776 244.117 273.125 241.55 275.689C237.978 279.252 235.282 284.968 233.975 291.752C233.76 292.899 233.331 293.888 232.756 294.564C232.181 295.241 231.493 295.565 230.8 295.486V295.443ZM220.5 295.095C220.04 295.039 219.594 294.808 219.192 294.417C218.79 294.026 218.442 293.485 218.175 292.834C217.907 292.182 217.726 291.436 217.644 290.649C217.562 289.861 217.581 289.052 217.7 288.279C218.705 280.537 220.623 273.241 223.334 266.852C226.045 260.462 229.49 255.119 233.45 251.159C238.487 246.139 244.193 243.498 250 243.498C255.807 243.498 261.513 246.139 266.55 251.159C270.51 255.119 273.955 260.462 276.666 266.852C279.377 273.241 281.295 280.537 282.3 288.279C282.499 289.678 282.37 291.157 281.941 292.391C281.512 293.624 280.818 294.511 280.012 294.857C279.207 295.202 278.355 294.978 277.645 294.233C276.935 293.488 276.424 292.283 276.225 290.884C275.42 284.566 273.867 278.609 271.663 273.391C269.459 268.174 266.653 263.811 263.425 260.58C259.337 256.497 254.704 254.347 249.988 254.347C245.271 254.347 240.638 256.497 236.55 260.58C233.324 263.806 230.52 268.162 228.317 273.372C226.113 278.581 224.558 284.531 223.75 290.841C223.59 292.107 223.175 293.232 222.579 294.013C221.982 294.793 221.245 295.177 220.5 295.095ZM298.75 287.107C298.09 287.11 297.446 286.75 296.911 286.079C296.376 285.407 295.977 284.458 295.771 283.369C295.566 282.279 295.564 281.105 295.767 280.013C295.97 278.922 296.367 277.971 296.9 277.295C297.975 275.906 299.025 274.43 300 272.823V286.673C299.625 286.977 299.2 287.15 298.75 287.15V287.107ZM101.25 287.107C100.5 287.107 99.8 286.673 99.25 285.848C93.8561 278.88 89.4756 269.817 86.4586 259.383C83.4417 248.95 81.872 237.436 81.875 225.761C81.889 212.616 83.886 199.706 87.667 188.318C91.448 176.93 96.881 167.461 103.425 160.855C109.244 155.004 115.771 151.603 122.483 150.925C129.195 150.246 135.905 152.309 142.075 156.947C142.456 157.215 142.803 157.611 143.095 158.111C143.388 158.612 143.621 159.208 143.781 159.865C143.942 160.522 144.026 161.228 144.029 161.941C144.032 162.655 143.954 163.363 143.8 164.024C143.646 164.685 143.418 165.287 143.13 165.796C142.841 166.304 142.498 166.709 142.12 166.987C141.741 167.266 141.335 167.412 140.924 167.417C140.513 167.423 140.106 167.288 139.725 167.02C134.436 163.006 128.677 161.209 122.914 161.775C117.151 162.341 111.545 165.253 106.55 170.276C100.956 175.925 96.312 184.019 93.0794 193.754C89.8468 203.489 88.1387 214.524 88.125 225.761C88.1218 235.788 89.4754 245.675 92.0766 254.627C94.6777 263.578 98.4537 271.343 103.1 277.295C103.635 277.973 104.033 278.928 104.235 280.024C104.437 281.119 104.434 282.298 104.225 283.39C104.016 284.482 103.613 285.43 103.074 286.098C102.535 286.766 101.887 287.12 101.225 287.107H101.25ZM0 286.629L0 272.78C3.74999 266.784 6.74189 259.501 8.78606 251.393C10.8302 243.284 11.8821 234.526 11.875 225.674C11.875 207.657 7.45 190.594 0 178.568L0 164.588C5.59592 171.542 10.1584 180.708 13.3101 191.33C16.4618 201.952 18.1123 213.725 18.125 225.674C18.1319 237.356 16.5641 248.879 13.547 259.32C10.5299 269.762 6.14734 278.832 0.75 285.805C0.522331 286.125 0.269859 286.388 0 286.586L0 286.629ZM174.925 283.286C169.131 283.291 163.44 280.64 158.425 275.602C153.4 270.528 149.228 263.257 146.324 254.513C143.421 245.768 141.887 235.855 141.875 225.761C141.87 217.827 142.812 209.977 144.64 202.707C146.469 195.436 149.145 188.903 152.5 183.518C152.937 182.765 153.492 182.254 154.096 182.047C154.699 181.841 155.325 181.948 155.893 182.356C156.462 182.764 156.949 183.454 157.292 184.341C157.636 185.227 157.821 186.27 157.825 187.338C157.825 188.944 157.45 190.377 156.825 191.332C154.077 195.706 151.884 201.027 150.386 206.955C148.888 212.882 148.118 219.287 148.125 225.761C148.136 233.947 149.381 241.986 151.737 249.077C154.092 256.168 157.475 262.065 161.55 266.181C164.771 269.427 168.347 271.471 172.049 272.181C175.752 272.891 179.498 272.252 183.05 270.305C183.846 269.902 184.701 270.065 185.428 270.757C186.154 271.449 186.693 272.614 186.925 273.996C187.157 275.377 187.064 276.863 186.665 278.125C186.267 279.387 185.596 280.322 184.8 280.725C181.603 282.452 178.273 283.33 174.925 283.33V283.286ZM25.075 283.286C21.7266 283.287 18.3974 282.408 15.2 280.682C14.806 280.482 14.4386 280.15 14.1186 279.703C13.7986 279.257 13.5323 278.706 13.335 278.081C13.1376 277.456 13.0131 276.77 12.9685 276.062C12.9239 275.353 12.9601 274.636 13.075 273.952C13.1899 273.268 13.3813 272.63 13.6382 272.074C13.8951 271.518 14.2126 271.056 14.5724 270.713C14.9322 270.371 15.3274 270.154 15.7353 270.077C16.1433 269.999 16.556 270.062 16.95 270.262C20.5001 272.216 24.2458 272.862 27.9478 272.159C31.6499 271.456 35.2268 269.42 38.45 266.181C42.5284 262.061 45.9141 256.158 48.2696 249.058C50.625 241.959 51.8681 233.911 51.875 225.717C51.8784 219.251 51.1067 212.855 49.6088 206.935C48.111 201.015 45.9199 195.701 43.175 191.332C42.8542 190.85 42.5933 190.26 42.4082 189.597C42.223 188.935 42.1175 188.214 42.098 187.478C42.0785 186.742 42.1454 186.007 42.2947 185.318C42.4441 184.628 42.6727 183.999 42.9666 183.468C43.2605 182.937 43.6136 182.515 44.0043 182.228C44.3951 181.942 44.8153 181.797 45.2395 181.801C45.6636 181.806 46.0827 181.961 46.4714 182.256C46.86 182.551 47.21 182.98 47.5 183.518C50.855 188.903 53.5311 195.436 55.3598 202.707C57.1885 209.977 58.13 217.827 58.125 225.761C58.1109 235.859 56.5731 245.775 53.6649 254.52C50.7567 263.265 46.5797 270.534 41.55 275.602C36.5522 280.64 30.8788 283.306 25.1 283.33L25.075 283.286ZM295.275 269.567C294.647 269.562 294.035 269.228 293.518 268.609C293.001 267.991 292.603 267.116 292.376 266.099C292.15 265.083 292.105 263.971 292.247 262.909C292.39 261.847 292.713 260.884 293.175 260.146C296.176 255.344 298.51 249.42 300 242.823V263.489C299.213 265.056 298.379 266.549 297.5 267.961C297.209 268.471 296.862 268.876 296.48 269.151C296.098 269.427 295.689 269.568 295.275 269.567ZM104.7 269.567C103.85 269.567 103.05 268.959 102.5 267.961C99.1481 262.581 96.4738 256.054 94.6452 248.791C92.8167 241.529 91.8735 233.687 91.875 225.761C91.8822 215.659 93.4142 205.737 96.318 196.985C99.2219 188.232 103.396 180.954 108.425 175.876C112.378 171.899 116.763 169.389 121.303 168.507C125.843 167.626 130.439 168.39 134.8 170.753C135.404 171.024 135.947 171.602 136.36 172.414C136.773 173.225 137.037 174.232 137.118 175.306C137.198 176.38 137.092 177.471 136.813 178.439C136.533 179.407 136.094 180.208 135.55 180.739C135.173 181.108 134.757 181.337 134.326 181.412C133.896 181.486 133.461 181.405 133.05 181.173C129.498 179.226 125.752 178.587 122.049 179.297C118.347 180.007 114.771 182.051 111.55 185.298C107.472 189.417 104.086 195.321 101.73 202.42C99.375 209.52 98.1319 217.567 98.125 225.761C98.1216 232.227 98.8934 238.624 100.391 244.543C101.889 250.463 104.08 255.777 106.825 260.146C107.289 260.887 107.613 261.853 107.754 262.919C107.896 263.985 107.849 265.101 107.619 266.12C107.389 267.138 106.988 268.013 106.467 268.628C105.946 269.243 105.33 269.57 104.7 269.567ZM175.45 265.92C171.242 266.066 167.091 264.204 163.45 260.537C159.941 256.998 157.026 251.927 154.996 245.826C152.965 239.725 151.889 232.807 151.875 225.761C151.875 215.602 154.025 206.311 157.6 199.277C157.858 198.695 158.182 198.209 158.552 197.85C158.922 197.491 159.33 197.267 159.751 197.19C160.172 197.114 160.598 197.187 161.002 197.404C161.407 197.622 161.782 197.981 162.104 198.458C162.426 198.935 162.689 199.521 162.877 200.18C163.065 200.84 163.174 201.558 163.197 202.293C163.22 203.027 163.157 203.762 163.011 204.453C162.865 205.143 162.641 205.776 162.35 206.311C159.607 211.669 158.095 218.592 158.1 225.761C158.1 236.181 161.35 245.906 166.55 251.116C170.121 254.716 174.331 255.906 178.375 254.459C178.779 254.33 179.193 254.341 179.595 254.491C179.996 254.641 180.376 254.927 180.714 255.332C181.052 255.737 181.34 256.254 181.563 256.853C181.786 257.451 181.939 258.121 182.013 258.822C182.086 259.523 182.08 260.243 181.994 260.94C181.907 261.637 181.743 262.297 181.51 262.884C181.276 263.471 180.979 263.972 180.634 264.358C180.289 264.745 179.904 265.01 179.5 265.139C178.166 265.608 176.811 265.869 175.45 265.92ZM24.525 265.92C23.175 265.877 21.825 265.616 20.5 265.139C20.0962 265.01 19.7109 264.745 19.3661 264.358C19.0213 263.972 18.7237 263.471 18.4904 262.884C18.2571 262.297 18.0926 261.637 18.0063 260.94C17.92 260.243 17.9136 259.523 17.9875 258.822C18.0614 258.121 18.2141 257.451 18.4368 256.853C18.6596 256.254 18.9481 255.737 19.2859 255.332C19.6237 254.927 20.0041 254.641 20.4054 254.491C20.8068 254.341 21.2212 254.33 21.625 254.459C25.6613 255.895 29.8608 254.705 33.425 251.116C35.9891 248.535 38.1188 244.831 39.6015 240.375C41.0841 235.918 41.8681 230.864 41.875 225.717C41.875 218.293 40.275 211.477 37.625 206.267C37.2257 205.486 36.9646 204.522 36.8731 203.49C36.7815 202.458 36.8634 201.402 37.1088 200.449C37.3543 199.495 37.7529 198.685 38.2568 198.116C38.7608 197.546 39.3487 197.241 39.95 197.237C40.95 197.237 41.825 198.018 42.375 199.277C46.0848 206.595 48.1294 216.012 48.125 225.761C48.1108 232.807 47.035 239.725 45.0043 245.826C42.9737 251.927 40.059 256.998 36.55 260.537C32.909 264.204 28.7583 266.066 24.55 265.92H24.525ZM0 263.489L0 242.91C2.51169 231.893 2.51169 219.628 0 208.612L0 187.989C5.23387 198.475 8.11818 211.884 8.125 225.761C8.12865 239.615 5.24225 253.002 0 263.446L0 263.489ZM289.95 254.241C289.349 254.238 288.761 253.932 288.257 253.363C287.753 252.793 287.354 251.983 287.109 251.03C286.863 250.076 286.782 249.02 286.873 247.988C286.965 246.956 287.226 245.992 287.625 245.211C290.368 239.853 291.88 232.93 291.875 225.761C291.875 215.341 288.625 205.573 283.425 200.363C279.861 196.773 275.661 195.584 271.625 197.02C271.221 197.151 270.806 197.143 270.404 196.995C270.003 196.848 269.621 196.565 269.282 196.162C268.943 195.759 268.653 195.243 268.429 194.646C268.205 194.048 268.051 193.379 267.975 192.678C267.899 191.977 267.904 191.257 267.989 190.559C268.074 189.861 268.237 189.198 268.469 188.61C268.701 188.021 268.998 187.518 269.342 187.128C269.686 186.739 270.071 186.471 270.475 186.34C275.8 184.516 281.5 185.905 286.55 190.942C290.063 194.484 292.98 199.562 295.011 205.671C297.041 211.78 298.115 218.707 298.125 225.761C298.125 235.877 295.95 245.168 292.375 252.244C292.084 252.863 291.718 253.364 291.304 253.709C290.889 254.054 290.435 254.236 289.975 254.241H289.95ZM110.025 254.241C109.05 254.241 108.175 253.46 107.625 252.244C103.915 244.927 101.871 235.51 101.875 225.761C101.882 218.711 102.952 211.787 104.979 205.679C107.005 199.57 109.917 194.489 113.425 190.942C118.281 186.053 123.998 184.416 129.5 186.34C129.904 186.468 130.289 186.733 130.634 187.12C130.979 187.507 131.276 188.008 131.51 188.594C131.743 189.181 131.907 189.842 131.994 190.539C132.08 191.236 132.086 191.955 132.013 192.656C131.939 193.358 131.786 194.027 131.563 194.626C131.34 195.225 131.052 195.741 130.714 196.146C130.376 196.552 129.996 196.837 129.595 196.987C129.193 197.137 128.779 197.148 128.375 197.02C124.331 195.573 120.121 196.763 116.55 200.363C113.991 202.949 111.866 206.655 110.388 211.111C108.91 215.567 108.129 220.618 108.125 225.761C108.125 233.185 109.725 240.001 112.375 245.211C112.776 245.995 113.037 246.963 113.128 247.999C113.219 249.035 113.135 250.095 112.886 251.049C112.638 252.004 112.235 252.814 111.727 253.38C111.22 253.947 110.628 254.246 110.025 254.241ZM175.25 248.554C172.925 248.641 170.575 247.686 168.45 245.515C166.456 243.506 164.8 240.625 163.647 237.159C162.493 233.694 161.882 229.764 161.875 225.761C161.865 221.035 162.704 216.421 164.275 212.563C164.749 211.377 165.475 210.566 166.293 210.31C167.111 210.053 167.955 210.372 168.637 211.195C169.32 212.018 169.787 213.279 169.935 214.7C170.082 216.12 169.899 217.585 169.425 218.771C168.862 220.127 168.468 221.673 168.269 223.309C168.071 224.946 168.072 226.636 168.272 228.272C168.472 229.907 168.867 231.452 169.432 232.807C169.996 234.162 170.718 235.296 171.55 236.137C172.799 237.384 174.242 237.916 175.675 237.657C176.087 237.582 176.504 237.651 176.901 237.859C177.297 238.067 177.666 238.41 177.986 238.867C178.306 239.325 178.57 239.889 178.763 240.526C178.956 241.163 179.075 241.86 179.111 242.577C179.148 243.294 179.102 244.016 178.976 244.702C178.85 245.388 178.647 246.023 178.378 246.571C178.11 247.12 177.781 247.57 177.411 247.895C177.042 248.22 176.638 248.415 176.225 248.467C175.892 248.514 175.559 248.543 175.225 248.554H175.25ZM24.75 248.554L23.75 248.467C23.3396 248.404 22.9404 248.202 22.575 247.871C22.2097 247.541 21.8855 247.088 21.6208 246.54C21.0864 245.433 20.8271 244.002 20.9 242.563C20.9729 241.123 21.3721 239.793 22.0097 238.865C22.6474 237.937 23.4712 237.487 24.3 237.613C25.6112 237.816 26.9283 237.363 28.0961 236.308C29.2639 235.253 30.2335 233.64 30.8905 231.659C31.5476 229.678 31.8646 227.412 31.8043 225.129C31.744 222.845 31.3087 220.639 30.55 218.771C30.3153 218.184 30.1494 217.522 30.062 216.823C29.9745 216.125 29.9671 215.403 30.0402 214.7C30.1879 213.279 30.6546 212.018 31.3375 211.195C32.0204 210.372 32.8637 210.053 33.6818 210.31C34.5 210.566 35.2259 211.377 35.7 212.563C37.2803 216.416 38.1281 221.03 38.125 225.761C38.1183 229.753 37.5103 233.673 36.3612 237.131C35.2122 240.589 33.5621 243.464 31.575 245.472C29.5108 247.544 27.159 248.595 24.775 248.511L24.75 248.554ZM283.1 241.347C282.526 241.343 281.964 241.065 281.475 240.543C280.986 240.02 280.589 239.274 280.328 238.386C280.067 237.498 279.952 236.502 279.996 235.508C280.039 234.514 280.24 233.56 280.575 232.751C281.138 231.395 281.532 229.849 281.731 228.212C281.929 226.576 281.928 224.886 281.728 223.25C281.528 221.614 281.133 220.069 280.568 218.715C280.004 217.36 279.282 216.226 278.45 215.385C277.194 214.128 275.741 213.596 274.3 213.865C273.89 213.925 273.476 213.844 273.084 213.626C272.692 213.409 272.328 213.059 272.013 212.598C271.378 211.666 270.982 210.333 270.913 208.894C270.843 207.455 271.105 206.026 271.642 204.923C272.179 203.82 272.946 203.132 273.775 203.011C276.4 202.62 279.1 203.532 281.55 206.007C283.544 208.016 285.2 210.897 286.353 214.362C287.507 217.828 288.118 221.758 288.125 225.761C288.128 230.492 287.28 235.106 285.7 238.959C285.413 239.697 285.025 240.301 284.572 240.718C284.118 241.134 283.613 241.35 283.1 241.347ZM116.875 241.347C115.8 241.347 114.875 240.392 114.275 238.959C112.704 235.101 111.865 230.487 111.875 225.761C111.875 217.642 114.375 210.044 118.425 206.007C120.784 203.632 123.511 202.599 126.225 203.055C126.638 203.107 127.042 203.301 127.411 203.627C127.781 203.952 128.11 204.402 128.378 204.95C128.647 205.498 128.85 206.134 128.976 206.82C129.102 207.505 129.148 208.228 129.111 208.945C129.075 209.662 128.956 210.359 128.763 210.996C128.57 211.633 128.306 212.196 127.986 212.654C127.666 213.112 127.297 213.455 126.901 213.663C126.504 213.871 126.087 213.939 125.675 213.865C124.364 213.662 123.047 214.115 121.879 215.17C120.711 216.225 119.742 217.839 119.084 219.819C118.427 221.8 118.11 224.066 118.171 226.35C118.231 228.633 118.666 230.839 119.425 232.707C119.769 233.52 119.975 234.482 120.022 235.487C120.068 236.492 119.952 237.499 119.688 238.396C119.423 239.293 119.019 240.044 118.523 240.565C118.026 241.087 117.455 241.357 116.875 241.347ZM125 231.188C124.171 231.188 123.376 230.616 122.79 229.598C122.204 228.581 121.875 227.2 121.875 225.761C121.875 224.322 122.204 222.941 122.79 221.923C123.376 220.906 124.171 220.334 125 220.334C125.829 220.334 126.624 220.906 127.21 221.923C127.796 222.941 128.125 224.322 128.125 225.761C128.125 227.2 127.796 228.581 127.21 229.598C126.624 230.616 125.829 231.188 125 231.188ZM175 231.188C174.171 231.188 173.376 230.616 172.79 229.598C172.204 228.581 171.875 227.2 171.875 225.761C171.875 224.322 172.204 222.941 172.79 221.923C173.376 220.906 174.171 220.334 175 220.334C175.829 220.334 176.624 220.906 177.21 221.923C177.796 222.941 178.125 224.322 178.125 225.761C178.125 227.2 177.796 228.581 177.21 229.598C176.624 230.616 175.829 231.188 175 231.188ZM24.775 231.188C24.3646 231.136 23.9641 230.945 23.5962 230.625C23.2284 230.305 22.9005 229.862 22.6312 229.322C22.3619 228.782 22.1565 228.155 22.0268 227.477C21.897 226.799 21.8455 226.083 21.875 225.37C21.9045 224.657 22.0146 223.962 22.199 223.323C22.3833 222.684 22.6383 222.115 22.9494 221.647C23.2605 221.179 23.6215 220.823 24.012 220.597C24.4024 220.372 24.8146 220.283 25.225 220.334C26.0538 220.438 26.825 221.109 27.3688 222.2C27.9127 223.291 28.1847 224.712 28.125 226.152C28.0653 227.591 27.6789 228.93 27.0506 229.875C26.4224 230.819 25.6038 231.291 24.775 231.188ZM275.225 231.188C274.815 231.239 274.402 231.15 274.012 230.924C273.622 230.699 273.26 230.342 272.949 229.875C272.638 229.407 272.383 228.837 272.199 228.199C272.015 227.56 271.905 226.864 271.875 226.152C271.845 225.439 271.897 224.723 272.027 224.045C272.157 223.367 272.362 222.74 272.631 222.2C272.9 221.66 273.228 221.217 273.596 220.897C273.964 220.576 274.365 220.385 274.775 220.334C275.604 220.23 276.422 220.703 277.051 221.647C277.679 222.592 278.065 223.931 278.125 225.37C278.185 226.809 277.913 228.231 277.369 229.322C276.825 230.413 276.054 231.084 275.225 231.188ZM200 225.414C189.427 225.429 179.22 218.69 171.323 206.481C163.426 194.272 158.39 177.445 157.175 159.205C157.07 158.185 157.135 157.134 157.363 156.176C157.591 155.219 157.972 154.395 158.461 153.801C158.95 153.208 159.527 152.869 160.123 152.827C160.719 152.784 161.31 153.039 161.825 153.561C162.248 153.992 162.606 154.591 162.871 155.307C163.136 156.024 163.3 156.838 163.35 157.685C163.991 167.653 165.972 177.22 169.133 185.613C172.295 194.007 176.548 200.993 181.55 206.007C187.16 211.606 193.517 214.553 199.988 214.553C206.458 214.553 212.815 211.606 218.425 206.007C223.427 200.993 227.68 194.007 230.842 185.613C234.003 177.22 235.984 167.653 236.625 157.685C236.741 156.257 237.179 154.968 237.842 154.101C238.506 153.234 239.34 152.86 240.163 153.062C240.985 153.263 241.727 154.023 242.226 155.176C242.726 156.328 242.941 157.777 242.825 159.205C241.61 177.445 236.574 194.272 228.677 206.481C220.78 218.69 210.573 225.429 200 225.414ZM300 208.699C297.774 198.852 293.694 190.605 288.425 185.298C285.202 182.058 281.625 180.022 277.923 179.319C274.221 178.617 270.475 179.263 266.925 181.216C266.325 181.537 265.683 181.537 265.083 181.215C264.483 180.892 263.953 180.264 263.562 179.411C263.171 178.558 262.936 177.521 262.89 176.433C262.843 175.346 262.986 174.259 263.3 173.315C263.504 172.691 263.776 172.144 264.102 171.704C264.429 171.264 264.802 170.941 265.2 170.753C271.339 167.432 277.903 167.299 284.086 170.368C290.268 173.438 295.8 179.578 300 188.033V208.699ZM200 208.047C192.485 208.069 185.19 203.642 179.318 195.497C173.447 187.352 169.349 175.975 167.7 163.242C167.545 162.209 167.569 161.119 167.77 160.109C167.97 159.099 168.337 158.215 168.826 157.566C169.314 156.917 169.902 156.533 170.515 156.461C171.129 156.39 171.741 156.634 172.275 157.164C172.649 157.533 172.976 158.031 173.234 158.629C173.492 159.227 173.676 159.91 173.775 160.638C174.58 166.956 176.133 172.913 178.337 178.131C180.541 183.348 183.347 187.711 186.575 190.942C190.66 195.017 195.289 197.162 200 197.162C204.711 197.162 209.34 195.017 213.425 190.942C216.653 187.711 219.459 183.348 221.663 178.131C223.867 172.913 225.42 166.956 226.225 160.638C226.364 159.575 226.685 158.609 227.144 157.867C227.604 157.125 228.182 156.641 228.802 156.477C229.422 156.313 230.057 156.477 230.623 156.948C231.189 157.419 231.66 158.175 231.975 159.118C232.425 160.42 232.5 161.897 232.3 163.242C230.656 175.983 226.561 187.37 220.688 195.524C214.816 203.677 207.518 208.11 200 208.091V208.047ZM200 190.681C195.164 190.7 190.447 188.078 186.517 183.185C182.587 178.292 179.642 171.376 178.1 163.416C177.962 162.743 177.902 162.03 177.923 161.317C177.944 160.604 178.045 159.905 178.222 159.26C178.398 158.614 178.646 158.036 178.951 157.557C179.256 157.079 179.613 156.709 180 156.47C180.387 156.23 180.798 156.126 181.209 156.162C181.62 156.198 182.022 156.374 182.393 156.681C182.765 156.987 183.098 157.418 183.374 157.948C183.649 158.477 183.862 159.096 184 159.769C185.296 166.563 187.982 172.294 191.55 175.876C194.117 178.44 197.026 179.789 199.988 179.789C202.949 179.789 205.858 178.44 208.425 175.876C211.997 172.313 214.693 166.597 216 159.813C216.275 158.454 216.85 157.341 217.598 156.718C218.345 156.095 219.205 156.013 219.988 156.491C220.77 156.969 221.411 157.967 221.77 159.266C222.128 160.565 222.175 162.057 221.9 163.416C220.362 171.384 217.42 178.309 213.489 183.211C209.558 188.112 204.839 190.741 200 190.725V190.681ZM300 178.655C294.744 170.21 288.184 164.611 281.124 162.545C274.063 160.478 266.809 162.033 260.25 167.02C259.647 167.472 258.978 167.584 258.337 167.338C257.696 167.093 257.116 166.503 256.678 165.652C256.241 164.802 255.969 163.734 255.901 162.6C255.834 161.466 255.973 160.324 256.3 159.335C256.664 158.233 257.239 157.388 257.925 156.947C264.727 151.832 272.176 149.855 279.547 151.209C286.919 152.563 293.964 157.202 300 164.675V178.655ZM200 173.271C197.491 173.274 195.035 172.028 192.922 169.681C190.808 167.335 189.126 163.985 188.075 160.03C187.899 159.385 187.799 158.687 187.778 157.975C187.758 157.264 187.819 156.552 187.957 155.88C188.095 155.209 188.308 154.592 188.583 154.063C188.859 153.535 189.192 153.106 189.562 152.801C189.933 152.496 190.335 152.321 190.745 152.286C191.155 152.25 191.565 152.356 191.952 152.596C192.338 152.835 192.694 153.205 192.998 153.684C193.302 154.162 193.549 154.74 193.725 155.384C194.3 157.598 195.275 159.552 196.55 160.855C197.385 161.687 198.311 162.206 199.269 162.38C200.226 162.553 201.194 162.376 202.11 161.861C203.026 161.346 203.87 160.503 204.587 159.388C205.305 158.272 205.879 156.909 206.275 155.384C206.515 154.479 206.893 153.705 207.369 153.149C207.845 152.592 208.401 152.274 208.974 152.229C209.547 152.184 210.116 152.415 210.619 152.895C211.122 153.374 211.539 154.086 211.825 154.95C212.35 156.556 212.375 158.423 211.925 160.03C210.879 163.992 209.198 167.347 207.084 169.695C204.969 172.043 202.51 173.285 200 173.271ZM100.225 155.905C99.8146 155.957 99.4024 155.867 99.012 155.642C98.6215 155.416 98.2605 155.06 97.9494 154.592C97.6383 154.124 97.3833 153.555 97.199 152.916C97.0146 152.277 96.9045 151.582 96.875 150.869C96.8455 150.156 96.897 149.441 97.0268 148.762C97.1565 148.084 97.3619 147.457 97.6312 146.917C97.9005 146.377 98.2284 145.934 98.5962 145.614C98.9641 145.294 99.3646 145.103 99.775 145.051C100.604 144.948 101.422 145.42 102.051 146.365C102.679 147.309 103.065 148.648 103.125 150.088C103.185 151.527 102.913 152.948 102.369 154.039C101.825 155.13 101.054 155.802 100.225 155.905ZM199.775 155.905C199.351 155.891 198.933 155.727 198.546 155.423C198.16 155.119 197.813 154.682 197.527 154.137C197.241 153.593 197.022 152.953 196.883 152.257C196.744 151.561 196.688 150.823 196.718 150.088C196.749 149.353 196.865 148.637 197.06 147.982C197.256 147.328 197.526 146.75 197.854 146.283C198.182 145.815 198.561 145.469 198.969 145.265C199.377 145.061 199.804 145.003 200.225 145.095C201.054 145.198 201.825 145.87 202.369 146.961C202.913 148.052 203.185 149.473 203.125 150.912C203.065 152.352 202.679 153.691 202.051 154.635C201.422 155.58 200.604 156.052 199.775 155.949V155.905ZM174.675 150.174C168.915 150.102 163.22 148.036 157.925 144.096C157.153 143.561 156.534 142.514 156.206 141.187C155.878 139.86 155.867 138.361 156.175 137.019C156.483 135.678 157.086 134.604 157.85 134.034C158.614 133.464 159.478 133.445 160.25 133.98C165.539 137.994 171.298 139.791 177.061 139.225C182.824 138.659 188.43 135.747 193.425 130.724C199.023 125.081 203.673 116.989 206.91 107.254C210.147 97.5186 211.859 86.4806 211.875 75.2392C211.875 65.2088 210.518 55.3187 207.912 46.3669C205.307 37.4151 201.526 29.6524 196.875 23.7049C196.219 22.8125 195.793 21.5039 195.692 20.0668C195.592 18.6297 195.824 17.182 196.338 16.0421C196.851 14.9021 197.605 14.1634 198.432 13.9883C199.26 13.8133 200.094 14.2162 200.75 15.1086C206.147 22.0814 210.53 31.1513 213.547 41.5927C216.564 52.0341 218.132 63.5569 218.125 75.2392C218.108 88.3887 216.108 101.301 212.322 112.689C208.537 124.078 203.099 133.544 196.55 140.145C189.914 146.822 182.369 150.285 174.7 150.174H174.675ZM25.325 150.174C16.2494 150.315 7.38215 145.451 0 136.281L0 122.302C5.25554 130.746 11.8155 136.345 18.876 138.412C25.9365 140.479 33.1909 138.923 39.75 133.937C40.3555 133.474 41.03 133.356 41.6764 133.601C42.3228 133.846 42.9077 134.441 43.347 135.301C43.7862 136.16 44.057 137.239 44.1205 138.383C44.1839 139.527 44.0367 140.676 43.7 141.665C43.3331 142.753 42.758 143.582 42.075 144.009C36.7832 147.978 31.0888 150.074 25.325 150.174ZM90.65 148.785C90.1393 148.72 89.6455 148.439 89.2122 147.965C88.7788 147.491 88.4192 146.84 88.1648 146.068C87.9105 145.296 87.7693 144.427 87.7536 143.539C87.738 142.65 87.8483 141.768 88.075 140.97C89.2065 136.664 91.0861 133.081 93.45 130.724C95.4439 128.74 97.702 127.696 100 127.696C102.298 127.696 104.556 128.74 106.55 130.724C108.914 133.081 110.793 136.664 111.925 140.97C112.126 141.62 112.249 142.334 112.286 143.069C112.323 143.804 112.273 144.544 112.14 145.245C112.006 145.945 111.792 146.591 111.51 147.143C111.228 147.695 110.884 148.141 110.5 148.454C110.115 148.767 109.698 148.941 109.273 148.965C108.849 148.989 108.426 148.862 108.03 148.592C107.635 148.322 107.275 147.915 106.974 147.396C106.672 146.877 106.434 146.256 106.275 145.572C105.722 143.496 104.839 141.739 103.729 140.507C102.619 139.275 101.33 138.62 100.013 138.62C98.6954 138.62 97.4059 139.275 96.2962 140.507C95.1864 141.739 94.3029 143.496 93.75 145.572C93.4882 146.599 93.0494 147.459 92.4942 148.035C91.9389 148.61 91.2946 148.872 90.65 148.785ZM60.025 148.134C59.59 148.078 59.1665 147.865 58.7817 147.508C58.397 147.151 58.0595 146.658 57.7911 146.061C57.5226 145.464 57.3291 144.776 57.223 144.042C57.1169 143.307 57.1005 142.542 57.175 141.795C57.946 130.195 60.2693 119.068 63.9591 109.306C67.6489 99.543 72.603 91.4152 78.425 85.5721C84.9879 79.0121 92.4276 75.5594 100 75.5594C107.572 75.5594 115.012 79.0121 121.575 85.5721C127.397 91.4152 132.351 99.543 136.041 109.306C139.731 119.068 142.054 130.195 142.825 141.795C142.912 142.522 142.913 143.272 142.827 143.999C142.741 144.727 142.57 145.416 142.324 146.023C142.078 146.631 141.763 147.145 141.399 147.533C141.034 147.921 140.628 148.175 140.205 148.279C139.781 148.383 139.35 148.335 138.938 148.138C138.526 147.942 138.141 147.6 137.808 147.135C137.475 146.669 137.2 146.09 137.001 145.433C136.802 144.776 136.682 144.055 136.65 143.315C136.009 133.347 134.028 123.78 130.867 115.387C127.705 106.993 123.452 100.007 118.45 94.9932C113.147 89.6573 107.161 86.7025 101.035 86.3965C94.9089 86.0905 88.8355 88.4429 83.3647 93.2406C77.8939 98.0384 73.1985 105.13 69.7038 113.874C66.209 122.617 64.0252 132.736 63.35 143.315C63.2556 144.7 62.8575 145.97 62.2383 146.859C61.6191 147.748 60.8265 148.189 60.025 148.09V148.134ZM80.825 144.921C80.3339 144.87 79.8566 144.617 79.4322 144.185C79.0078 143.753 78.6482 143.153 78.3826 142.433C78.117 141.714 77.953 140.896 77.9039 140.046C77.8548 139.195 77.922 138.337 78.1 137.54C79.8996 128.3 83.58 120.519 88.45 115.659C91.9649 112.155 95.9471 110.311 100 110.311C104.053 110.311 108.035 112.155 111.55 115.659C116.42 120.519 120.1 128.3 121.9 137.54C122.038 138.213 122.098 138.927 122.077 139.64C122.056 140.353 121.955 141.052 121.778 141.697C121.602 142.342 121.354 142.92 121.049 143.399C120.744 143.878 120.387 144.247 120 144.487C119.613 144.726 119.202 144.831 118.791 144.795C118.38 144.759 117.978 144.582 117.606 144.276C117.235 143.969 116.902 143.539 116.626 143.009C116.351 142.479 116.138 141.86 116 141.187C114.699 134.41 112.013 128.695 108.45 125.124C105.88 122.552 102.966 121.198 100 121.198C97.0339 121.198 94.1199 122.552 91.55 125.124C87.9871 128.695 85.3012 134.41 84 141.187C83.7848 142.334 83.356 143.323 82.781 143.999C82.2061 144.675 81.5179 145 80.825 144.921ZM70.5 144.574C70.0376 144.519 69.588 144.287 69.1837 143.893C68.7795 143.499 68.4307 142.954 68.1627 142.298C67.8947 141.641 67.7141 140.889 67.6341 140.096C67.5541 139.304 67.5766 138.49 67.7 137.714C68.7079 129.98 70.6279 122.692 73.3386 116.311C76.0494 109.929 79.4923 104.593 83.45 100.637C88.4898 95.6095 94.2004 92.9637 100.013 92.9637C105.825 92.9637 111.535 95.6095 116.575 100.637C120.531 104.602 123.97 109.947 126.677 116.336C129.383 122.725 131.298 130.019 132.3 137.758C132.455 138.791 132.431 139.881 132.23 140.891C132.03 141.901 131.663 142.785 131.174 143.434C130.686 144.083 130.098 144.467 129.485 144.539C128.871 144.61 128.259 144.366 127.725 143.836C127.351 143.467 127.024 142.969 126.766 142.371C126.508 141.773 126.324 141.09 126.225 140.362C125.42 134.044 123.867 128.087 121.663 122.869C119.459 117.652 116.653 113.289 113.425 110.058C109.34 105.983 104.711 103.838 100 103.838C95.2889 103.838 90.66 105.983 86.575 110.058C83.3492 113.284 80.5454 117.64 78.3417 122.85C76.138 128.06 74.5828 134.009 73.775 140.319C73.6147 141.593 73.1954 142.725 72.594 143.506C71.9926 144.287 71.2492 144.666 70.5 144.574ZM251.25 136.629C250.5 136.629 249.8 136.151 249.25 135.37C243.856 128.401 239.476 119.338 236.459 108.905C233.442 98.4717 231.872 86.9575 231.875 75.2826C231.889 62.1373 233.886 49.2278 237.667 37.8399C241.448 26.452 246.881 16.9831 253.425 10.3763C259.244 4.52593 265.771 1.12507 272.483 0.446503C279.195 -0.232065 285.905 1.83057 292.075 6.46893C292.464 6.72365 292.82 7.11064 293.122 7.6073C293.424 8.10396 293.666 8.70026 293.833 9.36127C294.001 10.0223 294.09 10.7347 294.097 11.4568C294.104 12.1788 294.028 12.896 293.873 13.5663C293.719 14.2367 293.488 14.8466 293.196 15.3604C292.904 15.8743 292.556 16.2816 292.172 16.5587C291.788 16.8358 291.376 16.977 290.96 16.974C290.544 16.971 290.133 16.8239 289.75 16.5413C284.459 12.514 278.697 10.7063 272.929 11.2644C267.161 11.8225 261.55 14.7309 256.55 19.7541C250.953 25.4067 246.306 33.5082 243.073 43.251C239.84 52.9939 238.134 64.0379 238.125 75.2826C238.122 85.3093 239.475 95.1969 242.077 104.148C244.678 113.1 248.454 120.865 253.1 126.817C253.633 127.492 254.03 128.444 254.233 129.535C254.436 130.626 254.434 131.801 254.229 132.891C254.023 133.98 253.624 134.929 253.089 135.6C252.554 136.272 251.91 136.632 251.25 136.629ZM148.75 136.629C148.083 136.645 147.431 136.29 146.888 135.617C146.346 134.943 145.942 133.986 145.735 132.884C145.528 131.783 145.53 130.596 145.739 129.496C145.949 128.397 146.356 127.443 146.9 126.773C151.546 120.821 155.322 113.057 157.923 104.105C160.525 95.1535 161.878 85.2658 161.875 75.2392C161.859 63.9977 160.147 52.9597 156.91 43.2248C153.673 33.4898 149.023 25.3976 143.425 19.7541C138.43 14.731 132.824 11.819 127.061 11.2534C121.298 10.6877 115.539 12.4843 110.25 16.4979C109.647 16.9504 108.978 17.0619 108.337 16.8165C107.696 16.5711 107.116 15.9812 106.678 15.1307C106.241 14.2802 105.969 13.2122 105.901 12.0782C105.834 10.9442 105.973 9.80192 106.3 8.81335C106.656 7.71703 107.222 6.87213 107.9 6.42551C114.07 1.78714 120.78 -0.275491 127.492 0.403076C134.204 1.08164 140.731 4.48254 146.55 10.3329C153.099 16.9342 158.537 26.4007 162.322 37.789C166.108 49.1773 168.108 62.0896 168.125 75.2392C168.132 86.9214 166.564 98.4442 163.547 108.886C160.53 119.327 156.147 128.397 150.75 135.37C150.186 136.17 149.478 136.601 148.75 136.585V136.629ZM300 136.325C294.404 129.372 289.842 120.205 286.69 109.583C283.538 98.9608 281.888 87.1885 281.875 75.2392C281.868 63.5569 283.436 52.0341 286.453 41.5927C289.47 31.1513 293.853 22.0814 299.25 15.1086C299.5 14.7613 299.75 14.5008 300 14.3271V28.1333C296.251 34.1304 293.26 41.4137 291.216 49.5221C289.172 57.6306 288.119 66.3877 288.125 75.2392C288.125 93.2132 292.55 110.319 300 122.302V136.325ZM175.075 132.852C171.727 132.852 168.397 131.973 165.2 130.247C164.806 130.047 164.439 129.715 164.119 129.269C163.799 128.822 163.532 128.271 163.335 127.646C162.936 126.384 162.843 124.899 163.075 123.517C163.307 122.135 163.846 120.97 164.572 120.278C165.299 119.586 166.154 119.424 166.95 119.827C170.502 121.774 174.248 122.413 177.951 121.703C181.653 120.993 185.229 118.949 188.45 115.702C192.524 111.577 195.904 105.671 198.255 98.5723C200.606 91.4732 201.846 83.4285 201.85 75.2392C201.853 68.773 201.082 62.3764 199.584 56.4565C198.086 50.5366 195.895 45.2231 193.15 40.854C192.829 40.3721 192.568 39.7818 192.383 39.1191C192.198 38.4565 192.092 37.7353 192.073 36.9995C192.053 36.2636 192.12 35.5286 192.27 34.8392C192.419 34.1498 192.648 33.5204 192.942 32.9893C193.235 32.4583 193.589 32.0367 193.979 31.7502C194.37 31.4638 194.79 31.3184 195.214 31.3231C195.639 31.3278 196.058 31.4823 196.446 31.7773C196.835 32.0724 197.185 32.5018 197.475 33.0392C200.831 38.4156 203.51 44.9407 205.343 52.2034C207.176 59.4662 208.123 67.3094 208.125 75.2392C208.115 85.345 206.58 95.2698 203.671 104.023C200.763 112.776 196.583 120.052 191.55 125.124C186.542 130.152 180.86 132.803 175.075 132.808V132.852ZM24.925 132.808C20.1935 132.805 15.5178 131.032 11.2166 127.608C6.91543 124.184 3.08969 119.19 0 112.967L0 92.258C2.2215 102.12 6.30166 110.384 11.575 115.702C14.7982 118.942 18.3751 120.978 22.0772 121.681C25.7792 122.383 29.5249 121.737 33.075 119.783C33.4754 119.548 33.8991 119.455 34.3207 119.512C34.7422 119.569 35.1527 119.773 35.5274 120.114C35.902 120.454 36.233 120.923 36.5003 121.492C36.7676 122.06 36.9657 122.718 37.0825 123.423C37.1993 124.129 37.2325 124.868 37.1799 125.597C37.1274 126.325 36.9903 127.028 36.7769 127.662C36.5635 128.295 36.2783 128.848 35.9385 129.284C35.5987 129.721 35.2114 130.034 34.8 130.203C31.6026 131.93 28.2734 132.808 24.925 132.808ZM254.7 119.089C253.85 119.089 253.05 118.481 252.5 117.482C249.148 112.102 246.474 105.576 244.645 98.3129C242.817 91.0503 241.873 83.2091 241.875 75.2826C241.882 65.1809 243.414 55.259 246.318 46.5062C249.222 37.7534 253.396 30.4755 258.425 25.3981C262.378 21.4203 266.763 18.911 271.303 18.0291C275.843 17.1473 280.439 17.9121 284.8 20.2751C285.596 20.6781 286.267 21.6134 286.665 22.8755C287.064 24.1375 287.157 25.6227 286.925 27.0045C286.693 28.3862 286.154 29.5513 285.428 30.2433C284.701 30.9354 283.846 31.0978 283.05 30.6948C279.498 28.7502 275.752 28.1126 272.05 28.8228C268.348 29.5329 264.772 31.5751 261.55 34.8192C257.475 38.9351 254.092 44.8319 251.737 51.9232C249.381 59.0144 248.136 67.0529 248.125 75.2392C248.122 81.7053 248.893 88.1019 250.391 94.0218C251.889 99.9417 254.08 105.255 256.825 109.624C257.289 110.365 257.613 111.332 257.754 112.398C257.896 113.464 257.849 114.579 257.619 115.598C257.389 116.617 256.988 117.491 256.467 118.106C255.946 118.721 255.33 119.049 254.7 119.045V119.089ZM145.275 119.089C144.642 119.093 144.022 118.763 143.5 118.142C142.977 117.522 142.575 116.64 142.347 115.613C142.119 114.587 142.077 113.465 142.224 112.395C142.372 111.325 142.704 110.359 143.175 109.624C145.92 105.255 148.111 99.9417 149.609 94.0218C151.107 88.1019 151.878 81.7053 151.875 75.2392C151.864 67.0529 150.619 59.0144 148.263 51.9232C145.908 44.8319 142.525 38.9351 138.45 34.8192C135.229 31.5726 131.653 29.5289 127.951 28.8188C124.248 28.1086 120.502 28.7475 116.95 30.6948C116.556 30.8943 116.143 30.9572 115.735 30.8797C115.327 30.8022 114.932 30.586 114.572 30.2433C114.213 29.9007 113.895 29.4383 113.638 28.8825C113.381 28.3268 113.19 27.6886 113.075 27.0045C112.96 26.3203 112.924 25.6035 112.969 24.8951C113.013 24.1866 113.138 23.5003 113.335 22.8755C113.532 22.2506 113.799 21.6993 114.119 21.2531C114.439 20.807 114.806 20.4746 115.2 20.2751C119.557 17.9183 124.149 17.1568 128.684 18.0386C133.22 18.9204 137.601 21.4264 141.55 25.3981C146.58 30.4663 150.757 37.735 153.665 46.4799C156.573 55.2249 158.111 65.1406 158.125 75.2392C158.13 83.173 157.188 91.0225 155.36 98.293C153.531 105.564 150.855 112.097 147.5 117.482C147.213 117.989 146.87 118.392 146.493 118.668C146.115 118.944 145.71 119.087 145.3 119.089H145.275ZM174.525 115.442C173.175 115.399 171.825 115.095 170.5 114.66C169.86 114.488 169.266 113.975 168.801 113.191C168.337 112.408 168.023 111.393 167.905 110.286C167.787 109.18 167.87 108.038 168.142 107.017C168.415 105.996 168.863 105.147 169.425 104.588C170.125 103.893 170.9 103.72 171.625 103.98C175.661 105.416 179.861 104.227 183.425 100.637C185.989 98.0562 188.119 94.3527 189.601 89.8962C191.084 85.4397 191.868 80.386 191.875 75.2392C191.875 67.7717 190.275 60.9554 187.625 55.789C187.226 55.0082 186.965 54.0439 186.873 53.0118C186.782 51.9797 186.863 50.9236 187.109 49.9703C187.354 49.017 187.753 48.2069 188.257 47.6372C188.761 47.0675 189.349 46.7624 189.95 46.7585C190.95 46.7585 191.825 47.54 192.375 48.7557C196.085 56.0729 198.129 65.4899 198.125 75.2392C198.115 82.2931 197.041 89.2196 195.011 95.3287C192.98 101.438 190.063 106.516 186.55 110.058C182.909 113.726 178.758 115.588 174.55 115.442H174.525ZM25.475 115.442C21.2535 115.57 17.0932 113.677 13.45 109.972C9.94462 106.437 7.03229 101.372 5.00187 95.2795C2.97146 89.1869 1.89353 82.2784 1.875 75.2392C1.875 65.0799 4.05 55.8324 7.625 48.7557C8.03617 47.8994 8.58922 47.2839 9.20895 46.9927C9.82868 46.7016 10.485 46.749 11.0887 47.1284C11.6923 47.5079 12.2141 48.2011 12.5829 49.1137C12.9517 50.0263 13.1497 51.114 13.15 52.2289C13.15 53.5314 12.875 54.8338 12.375 55.789C9.63225 61.1473 8.11963 68.0698 8.125 75.2392C8.125 85.6589 11.375 95.4274 16.575 100.637C20.1392 104.227 24.3387 105.416 28.375 103.98C28.7788 103.852 29.1932 103.863 29.5946 104.013C29.9959 104.163 30.3763 104.448 30.7141 104.854C31.0519 105.259 31.3404 105.775 31.5632 106.374C31.786 106.973 31.9386 107.642 32.0125 108.344C32.0864 109.045 32.08 109.764 31.9937 110.461C31.9074 111.158 31.7429 111.819 31.5096 112.406C31.2763 112.992 30.9787 113.493 30.6339 113.88C30.2891 114.267 29.9038 114.532 29.5 114.66C28.1744 115.129 26.8274 115.39 25.475 115.442ZM300 112.967C294.779 102.502 291.896 89.1289 291.875 75.2826C291.859 61.3985 294.746 47.9767 300 37.511V58.09C297.497 69.0947 297.497 81.3401 300 92.3449L300 113.011V112.967ZM260.025 103.763C259.05 103.763 258.175 102.938 257.6 101.723C253.89 94.4054 251.846 84.9884 251.85 75.2392C251.864 68.1925 252.94 61.275 254.971 55.1742C257.001 49.0734 259.916 44.0018 263.425 40.4633C268.281 35.5746 273.998 33.9378 279.5 35.8612C279.904 35.9895 280.289 36.2547 280.634 36.6416C280.979 37.0285 281.276 37.5295 281.51 38.1161C281.743 38.7026 281.907 39.3633 281.994 40.0603C282.08 40.7573 282.086 41.4769 282.013 42.1782C281.939 42.8795 281.786 43.5486 281.563 44.1474C281.34 44.7462 281.052 45.2629 280.714 45.6681C280.376 46.0733 279.996 46.359 279.595 46.5088C279.193 46.6587 278.779 46.6698 278.375 46.5415C274.334 45.0812 270.124 46.2557 266.55 49.8411C263.987 52.4313 261.86 56.1439 260.382 60.6083C258.903 65.0727 258.125 70.1326 258.125 75.2826C258.125 82.7066 259.725 89.5229 262.375 94.6893C262.776 95.4729 263.037 96.4412 263.128 97.4772C263.219 98.5133 263.135 99.5728 262.886 100.528C262.638 101.483 262.235 102.292 261.727 102.859C261.22 103.425 260.628 103.724 260.025 103.72V103.763ZM140 103.72C139.397 103.724 138.805 103.425 138.298 102.859C137.79 102.292 137.387 101.483 137.139 100.528C136.89 99.5728 136.806 98.5133 136.897 97.4772C136.988 96.4412 137.249 95.4729 137.65 94.6893C140.393 89.331 141.905 82.4085 141.9 75.2392C141.9 64.8194 138.65 55.0509 133.475 49.8411C129.904 46.2409 125.694 45.0508 121.65 46.4981C121.246 46.6263 120.832 46.6152 120.43 46.4654C120.029 46.3155 119.649 46.0299 119.311 45.6247C118.973 45.2195 118.685 44.7028 118.462 44.104C118.239 43.5052 118.086 42.8361 118.013 42.1348C117.939 41.4335 117.945 40.7139 118.031 40.0169C118.118 39.3199 118.282 38.6592 118.515 38.0727C118.749 37.4861 119.046 36.985 119.391 36.5981C119.736 36.2113 120.121 35.9461 120.525 35.8178C125.825 33.9944 131.525 35.3837 136.6 40.4199C140.103 43.9729 143.01 49.0562 145.032 55.1645C147.054 61.2728 148.12 68.1936 148.125 75.2392C148.125 85.3984 145.95 94.6459 142.375 101.723C142.082 102.347 141.712 102.851 141.292 103.196C140.873 103.542 140.414 103.721 139.95 103.72H140ZM174.8 98.0757C174.45 98.0757 174.125 98.0323 173.8 97.9455C173.382 97.9065 172.973 97.7222 172.597 97.4036C172.221 97.0849 171.886 96.6384 171.611 96.0905C171.336 95.5425 171.128 94.9044 170.998 94.2138C170.867 93.5232 170.819 92.7943 170.854 92.0703C170.889 91.3463 171.007 90.6419 171.202 89.9989C171.397 89.3559 171.664 88.7874 171.988 88.3271C172.312 87.8669 172.685 87.5242 173.087 87.3194C173.488 87.1146 173.909 87.0519 174.325 87.135C175.64 87.3446 176.962 86.8942 178.135 85.8374C179.307 84.7807 180.28 83.1618 180.938 81.1732C181.596 79.1846 181.912 76.9098 181.847 74.6189C181.783 72.3279 181.341 70.1172 180.575 68.2492C180.342 67.662 180.178 67.0008 180.092 66.3033C180.006 65.6059 180 64.8858 180.074 64.1843C180.148 63.4829 180.302 62.8137 180.525 62.215C180.748 61.6162 181.037 61.0997 181.375 60.6949C181.713 60.2901 182.094 60.005 182.496 59.8557C182.897 59.7065 183.312 59.696 183.716 59.825C184.12 59.9541 184.505 60.22 184.85 60.6076C185.194 60.9952 185.492 61.497 185.725 62.0842C187.3 65.9255 188.148 70.5233 188.15 75.2392C188.15 83.3579 185.625 90.9556 181.575 94.9932C179.511 97.0661 177.159 98.1172 174.775 98.0323L174.8 98.0757ZM25.275 98.0323C22.95 98.1191 20.6 97.1206 18.475 94.9932C16.4749 92.993 14.8125 90.1154 13.6542 86.6486C12.4959 83.1817 11.8824 79.2473 11.875 75.2392C11.8719 70.5084 12.7197 65.8941 14.3 62.0408C14.5347 61.4536 14.8338 60.9524 15.1801 60.5658C15.5263 60.1793 15.9131 59.915 16.3182 59.788C16.7232 59.661 17.1388 59.6738 17.541 59.8257C17.9433 59.9776 18.3243 60.2656 18.6625 60.6732C19.0007 61.0809 19.2893 61.6002 19.5118 62.2016C19.7344 62.8029 19.8866 63.4745 19.9598 64.178C20.0329 64.8815 20.0255 65.6031 19.938 66.3017C19.8506 67.0002 19.6847 67.662 19.45 68.2492C18.6836 70.1172 18.242 72.3279 18.1777 74.6189C18.1134 76.9098 18.429 79.1846 19.0871 81.1732C19.7452 83.1618 20.7182 84.7807 21.8904 85.8374C23.0626 86.8942 24.3848 87.3446 25.7 87.135C26.1122 87.0606 26.5289 87.1293 26.9257 87.3371C27.3225 87.545 27.6915 87.8878 28.0113 88.3457C28.331 88.8036 28.5952 89.3674 28.7883 90.0042C28.9814 90.6411 29.0996 91.3383 29.1361 92.0552C29.1726 92.7722 29.1266 93.4946 29.0007 94.1804C28.8749 94.8661 28.6718 95.5016 28.4032 96.0498C28.1346 96.5979 27.8059 97.0478 27.4363 97.3733C27.0666 97.6987 26.6634 97.8932 26.25 97.9455C25.9172 97.9915 25.5838 98.0205 25.25 98.0323H25.275ZM266.9 90.8253C265.825 90.8253 264.9 89.9136 264.3 88.4375C262.729 84.579 261.89 79.9651 261.9 75.2392C261.905 71.2404 262.512 67.3133 263.661 63.848C264.81 60.3827 266.461 57.4996 268.45 55.4851C270.809 53.1102 273.536 52.0778 276.25 52.5328C276.66 52.5955 277.06 52.798 277.425 53.1287C277.79 53.4593 278.115 53.9117 278.379 54.46C278.644 55.0083 278.844 55.6417 278.967 56.3242C279.091 57.0066 279.136 57.7247 279.1 58.4373C279.064 59.15 278.947 59.8434 278.757 60.4778C278.566 61.1122 278.306 61.6753 277.99 62.1349C277.675 62.5945 277.31 62.9416 276.917 63.1564C276.524 63.3711 276.11 63.4494 275.7 63.3867C274.389 63.1841 273.072 63.6371 271.904 64.6921C270.736 65.7472 269.767 67.3603 269.109 69.3411C268.452 71.322 268.135 73.5879 268.196 75.8714C268.256 78.155 268.691 80.361 269.45 82.2291C269.787 83.0413 269.987 83.9994 270.03 84.9973C270.072 85.9952 269.955 86.9942 269.691 87.8837C269.427 88.7733 269.027 89.5188 268.534 90.038C268.042 90.5571 267.476 90.8296 266.9 90.8253ZM133.15 90.8253C132.574 90.8296 132.008 90.5571 131.516 90.038C131.023 89.5188 130.623 88.7733 130.359 87.8837C130.095 86.9942 129.978 85.9952 130.02 84.9973C130.063 83.9994 130.263 83.0413 130.6 82.2291C131.366 80.3611 131.808 78.1503 131.872 75.8594C131.937 73.5685 131.621 71.2937 130.963 69.3051C130.305 67.3165 129.332 65.6976 128.16 64.6408C126.987 63.584 125.665 63.1337 124.35 63.3433C123.94 63.406 123.526 63.3277 123.133 63.1129C122.74 62.8982 122.375 62.5511 122.06 62.0915C121.744 61.6319 121.484 61.0688 121.293 60.4344C121.103 59.7999 120.986 59.1066 120.95 58.3939C120.914 57.6812 120.959 56.9632 121.083 56.2808C121.206 55.5983 121.406 54.9649 121.671 54.4166C121.935 53.8683 122.26 53.4159 122.625 53.0853C122.99 52.7546 123.39 52.5521 123.8 52.4894C126.425 52.0552 129.15 53.0104 131.6 55.5285C133.582 57.5414 135.227 60.4193 136.372 63.8767C137.517 67.3342 138.121 71.2511 138.125 75.2392C138.125 80.1451 137.225 84.7037 135.7 88.4375C135.415 89.1694 135.032 89.7695 134.583 90.1856C134.134 90.6018 133.634 90.8214 133.125 90.8253H133.15ZM25 80.6661C24.1712 80.6661 23.3763 80.0943 22.7903 79.0766C22.2042 78.0588 21.875 76.6785 21.875 75.2392C21.875 73.7998 22.2042 72.4195 22.7903 71.4017C23.3763 70.384 24.1712 69.8122 25 69.8122C25.8288 69.8122 26.6237 70.384 27.2097 71.4017C27.7958 72.4195 28.125 73.7998 28.125 75.2392C28.125 76.6785 27.7958 78.0588 27.2097 79.0766C26.6237 80.0943 25.8288 80.6661 25 80.6661ZM275 80.6661C274.171 80.6661 273.376 80.0943 272.79 79.0766C272.204 78.0588 271.875 76.6785 271.875 75.2392C271.875 73.7998 272.204 72.4195 272.79 71.4017C273.376 70.384 274.171 69.8122 275 69.8122C275.829 69.8122 276.624 70.384 277.21 71.4017C277.796 72.4195 278.125 73.7998 278.125 75.2392C278.125 76.6785 277.796 78.0588 277.21 79.0766C276.624 80.0943 275.829 80.6661 275 80.6661ZM125.225 80.6661C124.396 80.7697 123.578 80.2973 122.949 79.3529C122.321 78.4084 121.935 77.0692 121.875 75.6299C121.815 74.1906 122.087 72.769 122.631 71.678C123.175 70.587 123.946 69.9158 124.775 69.8122C125.185 69.7609 125.598 69.8505 125.988 70.0758C126.378 70.3011 126.74 70.6578 127.051 71.1254C127.362 71.5931 127.617 72.1626 127.801 72.8013C127.985 73.4401 128.095 74.1357 128.125 74.8484C128.155 75.5611 128.103 76.2769 127.973 76.955C127.843 77.633 127.638 78.2601 127.369 78.8003C127.1 79.3405 126.772 79.7833 126.404 80.1035C126.036 80.4236 125.635 80.6148 125.225 80.6661ZM174.775 80.6661C174.365 80.6148 173.964 80.4236 173.596 80.1035C173.228 79.7833 172.9 79.3405 172.631 78.8003C172.362 78.2601 172.157 77.633 172.027 76.955C171.897 76.2769 171.845 75.5611 171.875 74.8484C171.905 74.1357 172.015 73.4401 172.199 72.8013C172.383 72.1626 172.638 71.5931 172.949 71.1254C173.26 70.6578 173.622 70.3011 174.012 70.0758C174.402 69.8505 174.815 69.7609 175.225 69.8122C176.054 69.9158 176.825 70.587 177.369 71.678C177.913 72.769 178.185 74.1906 178.125 75.6299C178.065 77.0692 177.679 78.4084 177.051 79.3529C176.422 80.2973 175.604 80.7697 174.775 80.6661ZM50.025 74.8918C39.4432 74.9282 29.224 68.1991 21.3164 55.9879C13.4087 43.7767 8.36599 26.9379 7.15 8.68311C7.05074 7.6665 7.12031 6.62182 7.35055 5.67139C7.5808 4.72095 7.9622 3.90413 8.45009 3.3165C8.93798 2.72886 9.51218 2.39477 10.1054 2.35333C10.6987 2.3119 11.2865 2.56479 11.8 3.08249C12.2227 3.51401 12.581 4.11223 12.8459 4.82874C13.1108 5.54524 13.275 6.35992 13.325 7.20697C13.9724 17.1711 15.959 26.7316 19.1247 35.1176C22.2904 43.5035 26.5466 50.4802 31.55 55.4851C37.1598 61.0844 43.5171 64.0311 49.9875 64.0311C56.4579 64.0311 62.8152 61.0844 68.425 55.4851C73.4269 50.4709 77.6801 43.4852 80.8415 35.0916C84.003 26.6979 85.9841 17.1314 86.625 7.16357C86.6572 6.42319 86.7766 5.70218 86.9758 5.04514C87.1749 4.38809 87.4496 3.80896 87.7827 3.34366C88.1159 2.87835 88.5006 2.53677 88.9128 2.33997C89.3251 2.14317 89.7562 2.09535 90.1795 2.19952C90.6029 2.3037 91.0094 2.55763 91.3739 2.94559C91.7385 3.33355 92.0533 3.84728 92.2989 4.45502C92.5446 5.06276 92.7158 5.75156 92.802 6.47882C92.8881 7.20608 92.8875 7.95631 92.8 8.68311C91.5855 26.9156 86.5535 43.7364 78.6616 55.9445C70.7698 68.1527 60.5688 74.8962 50 74.8918H50.025ZM0 58.09L0 37.511C0.785858 35.9288 1.62041 34.4215 2.5 32.9958C2.93563 32.2287 3.49289 31.7041 4.10078 31.4889C4.70868 31.2737 5.33971 31.3776 5.91349 31.7873C6.48727 32.1971 6.97784 32.8942 7.32271 33.7898C7.66757 34.6854 7.85113 35.739 7.85 36.8164C7.85 38.4228 7.45 39.8555 6.85 40.8106C3.84318 45.5961 1.50102 51.5043 0 58.09ZM50 57.5256C42.4884 57.5495 35.1962 53.1291 29.3249 44.9926C23.4536 36.8561 19.3534 25.489 17.7 12.7642C17.5011 11.3651 17.6303 9.88619 18.0593 8.65268C18.4883 7.41917 19.1819 6.53217 19.9875 6.18674C20.7931 5.8413 21.6447 6.06574 22.355 6.81073C23.0653 7.55572 23.5761 8.76023 23.775 10.1592C24.5796 16.4772 26.1334 22.4349 28.3372 27.6524C30.541 32.8699 33.3465 37.2329 36.575 40.4633C40.663 44.5469 45.2965 46.696 50.0125 46.696C54.7285 46.696 59.362 44.5469 63.45 40.4633C66.6765 37.2236 69.4789 32.8518 71.6785 27.6267C73.878 22.4016 75.4264 16.4379 76.225 10.1158C76.3643 9.05306 76.6846 8.08777 77.1442 7.34561C77.6038 6.60345 78.1815 6.1188 78.802 5.95483C79.4224 5.79086 80.057 5.95517 80.6229 6.4263C81.1889 6.89743 81.66 7.65357 81.975 8.59628C82.425 9.89875 82.5 11.3749 82.3 12.7208C80.6515 25.4536 76.5534 36.8306 70.6817 44.9756C64.8099 53.1207 57.515 57.5473 50 57.5256ZM50 40.1594C45.1672 40.1818 40.4525 37.5657 36.5226 32.6808C32.5927 27.796 29.6463 20.8895 28.1 12.9378C27.8215 11.5791 27.8653 10.0839 28.2216 8.78122C28.5779 7.4785 29.2176 6.47497 30 5.99136C30.7824 5.50775 31.6434 5.58369 32.3935 6.20248C33.1437 6.82128 33.7215 7.93221 34 9.29092C35.3021 16.0916 37.998 21.8241 41.575 25.3981C44.142 27.9617 47.0513 29.3109 50.0125 29.3109C52.9737 29.3109 55.883 27.9617 58.45 25.3981C62.0176 21.816 64.7041 16.0845 66 9.29092C66.1897 8.29699 66.541 7.41959 67.0114 6.76456C67.4818 6.10953 68.0513 5.70483 68.6512 5.59927C69.2511 5.49372 69.8558 5.6918 70.3923 6.16965C70.9289 6.6475 71.3743 7.38474 71.675 8.29239C72.175 9.76852 72.225 11.4617 71.9 12.9378C70.3537 20.8895 67.4073 27.796 63.4774 32.6808C59.5475 37.5657 54.8328 40.1818 50 40.1594ZM0 28.1333L0 14.3271C0.702724 13.807 1.49082 13.7518 2.21537 14.1721C2.93992 14.5924 3.55073 15.459 3.93238 16.6082C4.31402 17.7573 4.44007 19.1094 4.28671 20.409C4.13334 21.7086 3.71118 22.8657 3.1 23.6615C2.01983 25.0668 0.984939 26.5742 0 28.1767L0 28.1333ZM50 22.7932C47.4887 22.792 45.0304 21.5397 42.9166 19.1849C40.8029 16.8301 39.1226 13.4716 38.075 9.50803C37.8738 8.85829 37.751 8.1441 37.714 7.40915C37.6771 6.6742 37.7269 5.93389 37.8603 5.23346C37.9937 4.53303 38.2079 3.88719 38.4899 3.33539C38.7718 2.78359 39.1156 2.33744 39.5002 2.02417C39.8848 1.7109 40.3022 1.53708 40.7268 1.51337C41.1514 1.48966 41.5743 1.61652 41.9697 1.88623C42.3651 2.15594 42.7247 2.56286 43.0265 3.08206C43.3283 3.60126 43.566 4.22188 43.725 4.90598C44.2749 6.99409 45.1586 8.76389 46.2711 10.0048C47.3835 11.2456 48.6778 11.9053 50 11.9053C51.3222 11.9053 52.6165 11.2456 53.7289 10.0048C54.8414 8.76389 55.7251 6.99409 56.275 4.90598C56.434 4.22188 56.6717 3.60126 56.9735 3.08206C57.2753 2.56286 57.6349 2.15594 58.0303 1.88623C58.4257 1.61652 58.8486 1.48966 59.2732 1.51337C59.6978 1.53708 60.1152 1.7109 60.4998 2.02417C60.8844 2.33744 61.2282 2.78359 61.5102 3.33539C61.7921 3.88719 62.0063 4.53303 62.1397 5.23346C62.2731 5.93389 62.3229 6.6742 62.286 7.40915C62.249 8.1441 62.1262 8.85829 61.925 9.50803C60.8825 13.4782 59.2033 16.8426 57.0885 19.1987C54.9736 21.5547 52.5126 22.8027 50 22.7932ZM49.775 5.42694C48.9858 5.32801 48.2476 4.71285 47.7094 3.70563C47.1711 2.6984 46.8729 1.37411 46.875 0H53.125C53.1261 0.746783 53.0385 1.48595 52.8675 2.1712C52.6966 2.85646 52.4461 3.47305 52.1316 3.98245C51.8172 4.49185 51.4456 4.8831 51.0401 5.13165C50.6346 5.3802 50.2039 5.48071 49.775 5.42694ZM250.225 5.42694C249.795 5.48737 249.363 5.39147 248.956 5.14536C248.549 4.89924 248.175 4.50835 247.86 3.99762C247.545 3.48689 247.294 2.8676 247.125 2.17926C246.955 1.49093 246.87 0.748681 246.875 0H253.125C253.133 1.37709 252.837 2.70718 252.297 3.71664C251.758 4.72611 251.016 5.33816 250.225 5.42694Z" fill="white" fill-opacity="0.1"/>
</g>
</svg>
